<svg width="100" height="100" xmlns="http://www.w3.org/2000/svg">
<ellipse cx="40" cy="42" rx="9" ry="3" fill="rgb(12, 46, 130)" />
<defs>
    <linearGradient id="backtail" x1="0%" y1="0%" x2="500%" y2="20%">
      <stop offset="0%" style="stop-color:beige;stop-opacity:1" />
      <stop offset="200%" style="stop-color:rgb(12, 46, 130);stop-opacity:1" />
    </linearGradient>
  </defs>
  <rect x="62" y="44.5" width="10"  height="6" fill="url(#backtail)"/>

<defs>
    <linearGradient id="bluebacktail" x1="0%" y1="0%" x2="30%" y2="00%">
      <stop offset="0%" style="stop-color:beige;stop-opacity:1" />
      <stop offset="100%" style="stop-color:rgb(12, 46, 130);stop-opacity:1" />
    </linearGradient>
  </defs>
  <rect x="67" y="44.5" width="5"  height="6" fill="url(#bluebacktail)"/>

      <defs>
    <linearGradient id="grad1" x1="0%" y1="0%" x2="100%" y2="0%">
      <stop offset="0%" style="stop-color:rgb(12, 46, 130);stop-opacity:1" />
      <stop offset="100%" style="stop-color:beige;stop-opacity:1" />
    </linearGradient>
  </defs>
  <rect x="10" y="40" rx="50" ry="60" width="55" height="14" fill="url(#grad1)" ></rect>

<defs>
    <linearGradient id="grad2" x1="0%" y1="0%" x2="0%" y2="100%">
      <stop offset="0%" style="stop-color:rgb(150, 184, 224);stop-opacity:1" />
      <stop offset="100%" style="stop-color:rgb(12, 46, 130);stop-opacity:1" />
    </linearGradient>
  </defs>
<rect x="12" y="49.8" rx="50" ry="60" width="3" height="1.2" fill="url(#grad2)" ></rect>

<defs>
    <linearGradient id="head2" x1="0%" y1="0%" x2="180%" y2="0%">>
      <stop offset="0%" style="stop-color:rgb(12, 46, 130);stop-opacity:1" />
      <stop offset="150%" style="stop-color:rgb(113, 154, 245);stop-opacity:1" />
    </linearGradient>
  </defs>
  <circle  cx="16.5" cy="47" r="4.3"  fill="url(#head2)"></circle>

<defs>
    <linearGradient id="head" x1="0%" y1="0%" x2="0%" y2="250%">
      <stop offset="0%" style="stop-color:rgb(27, 52, 107);stop-opacity:1" />
      <stop offset="100%" style="stop-color:rgb(176, 148, 88);stop-opacity:1" />
    </linearGradient>
  </defs>
  <rect x="10" y="43.5" rx="50" ry="60" width="11" height="7" fill="url(#head)" ></rect>


<defs>
    <linearGradient id="grad3" x1="0%" y1="0%" x2="0%" y2="250%">
      <stop offset="0%" style="stop-color:rgb(12, 46, 130);stop-opacity:1" />
      <stop offset="100%" style="stop-color:white;stop-opacity:1" />
    </linearGradient>
  </defs>
  <circle  cx="15" cy="47" r="1.5"  fill="url(#grad3)"></circle>

  <filter id="blurMe">
    <feGaussianBlur stdDeviation="4" />
  </filter>
  <ellipse  cx="40.5" cy="51.8" rx="10" ry="1.5" fill="rgb(181, 127, 11)" filter="url(#blurMe)"/>

<filter id="blurMe2">
    <feGaussianBlur stdDeviation="1" />
  </filter>
  <ellipse  cx="46" cy="42" rx="7" ry="1" fill="rgb(181, 127, 11)" filter="url(#blurMe2)"/>

<filter id="blurMeblue">
    <feGaussianBlur stdDeviation="5" />
  </filter>
  <ellipse  cx="32" cy="47" rx="10" ry="3" fill="rgb(12, 46, 130)" filter="url(#blurMeblue)"/>
  
  <filter id="blurMedeepblue">
    <feGaussianBlur stdDeviation="3" />
  </filter>
  <ellipse  cx="30" cy="43" rx="10" ry="3" fill="rgb(12, 46, 130)" filter="url(#blurMedeepblue)"/>

<defs>
 <radialGradient id="rad1">
      <stop offset="0%" style="stop-color:rgb(12, 46, 130);stop-opacity:1" />
      <stop offset="120%" style="stop-color:black;stop-opacity:1" />
  </radialGradient>
  </defs>
  <circle  cx="15" cy="47" r="1"  fill="url(#rad1)"></circle>

<ellipse cx="15.3" cy="46.5" rx=".3" ry=".12" fill="white"/>

<defs>
    <linearGradient id="fin" x1="0%" y1="0%" x2="0%" y2="100%">
      <stop offset="0%" style="stop-color:rgb(48, 33, 1);stop-opacity:1" />
      <stop offset="100%" style="stop-color:rgb(245, 192, 81);stop-opacity:1" />
    </linearGradient>
  </defs>
<rect x="18" y="50.5" rx="50" ry="60" width="8" height="2" fill="url(#fin)" ></rect>

<defs>
    <linearGradient id="fin2" x1="150%" y1="0%" x2="0%" y2="0%">
      <stop offset="0%" style="stop-color:rgb(48, 33, 1);stop-opacity:1" />
      <stop offset="100%" style="stop-color:rgb(245, 192, 81);stop-opacity:1" />
    </linearGradient>
  </defs>
<rect x="45" y="52.8" rx="50" ry="60" width="6" height="1.5" fill="url(#fin2)" ></rect>


<polygon fill="rgb(12, 46, 130)" points="69,50 78,55 72,48"/>

<polygon fill="rgb(12, 46, 130)" points="80,40 68,45 72,48"/>

  </svg>