<?xml version="1.0" encoding="UTF-8"?><svg id="Layer_1" xmlns="http://www.w3.org/2000/svg" viewBox="0 0 595.44 419.76"><defs><style>.cls-1,.cls-2{fill:#fff;}.cls-3{fill:#ffd95e;}.cls-4{fill:#ff931e;}.cls-5{fill:#403632;}.cls-6{fill:#534741;}.cls-2{opacity:.57;}.cls-7{opacity:.56;}.cls-7,.cls-8{fill:#29abe2;}.cls-8{opacity:.26;}</style></defs><g><path class="cls-1" d="M233.76,177.11c-.47-.56-.91-1.13-1.35-1.71,.44,.58,.89,1.15,1.35,1.71Z"/><path d="M232.41,175.39c.44,.58,.88,1.16,1.35,1.71-.46-.56-.91-1.13-1.35-1.71h0Z"/></g><g><path class="cls-1" d="M241.62,184.61c-.58-.44-1.16-.88-1.71-1.35,.56,.46,1.13,.91,1.71,1.35Z"/><path d="M239.91,183.26c.56,.47,1.13,.91,1.71,1.35-.58-.44-1.15-.89-1.71-1.35h0Z"/></g><g><path class="cls-1" d="M352.65,183.26c-.56,.47-1.13,.91-1.71,1.35,.58-.44,1.15-.89,1.71-1.35Z"/><path d="M352.65,183.26c-.56,.46-1.13,.91-1.71,1.35,.58-.44,1.16-.88,1.71-1.35h0Z"/></g><g><path class="cls-1" d="M380.31,244.15c-.68,.9-1.37,1.79-2.09,2.65,.71-.87,1.41-1.75,2.09-2.65Z"/><path d="M380.31,244.15c-.68,.9-1.37,1.78-2.09,2.65,.72-.86,1.41-1.75,2.09-2.65h0Z"/></g><path class="cls-5" d="M277.63,267.22h0c-7.77,0-14.12-7.6-14.12-16.89v-39.87c0-9.29,6.35-16.89,14.12-16.89h0c7.77,0,14.12,7.6,14.12,16.89v39.87c0,9.29-6.35,16.89-14.12,16.89Z"/><path class="cls-5" d="M312.56,267.22h0c-7.77,0-14.12-7.6-14.12-16.89v-39.87c0-9.29,6.35-16.89,14.12-16.89h0c7.77,0,14.12,7.6,14.12,16.89v39.87c0,9.29-6.35,16.89-14.12,16.89Z"/><rect class="cls-5" x="268.71" y="134" width="52.03" height="122.07" rx="26.01" ry="26.01"/><path class="cls-5" d="M302.49,256.03c6.44,1.6,6.32,16.34,6.19,21.53-.24,9.1-5.57,15.06-10.12,22.44-8.97,14.53-6.36,32.44,8.15,42.23,8.02,5.42,15.54-7.57,7.57-12.95-16.13-10.89,3.6-28.01,7.48-39.65,2.98-8.94,2.01-18.73,.34-27.82s-6.03-17.85-15.62-20.23-13.36,12.13-3.99,14.46h0Z"/><path class="cls-7" d="M359.49,165.4c-8.11,11.17-33.78,19.34-64.23,19.34-27.9,0-51.8-6.86-61.84-16.6-23.14,18.42-37.92,46.48-37.92,77.93,0,55.48,46,100.46,102.75,100.46s102.75-44.98,102.75-100.46c0-33.05-16.32-62.36-41.51-80.67Z"/><path class="cls-3" d="M264.33,301.19s.77,4.96-1.79,7.38-7.46,1.4-7.46,1.4c0,0-.77-4.96,1.79-7.38s7.46-1.4,7.46-1.4Z"/><path class="cls-3" d="M264.33,326.46s.77-4.96-1.79-7.38-7.46-1.4-7.46-1.4c0,0-.77,4.96,1.79,7.38s7.46,1.4,7.46,1.4Z"/><path class="cls-3" d="M252.51,314.24c0,3.27,.45,6.35,1.25,9.02-6.06-3.08-10.32-9.22-10.32-9.22,0,0,4.32-6.24,10.46-9.29-.88,2.77-1.39,6.02-1.39,9.49Z"/><path class="cls-4" d="M277.25,314.04s-2.09,3.01-5.42,5.87c-3.03,2.59-7.05,5.05-11.49,5.05-2.33,0-4.56-.68-6.59-1.71-.79-2.67-1.25-5.75-1.25-9.02,0-3.47,.5-6.72,1.39-9.49,1.99-.99,4.16-1.64,6.45-1.64,4.39,0,8.39,2.42,11.4,4.98,3.38,2.89,5.51,5.95,5.51,5.95Z"/><path class="cls-3" d="M284.95,305.32s.77,4.96-1.79,7.38-7.46,1.4-7.46,1.4c0,0-.77-4.96,1.79-7.38,2.55-2.42,7.46-1.4,7.46-1.4Z"/><path class="cls-3" d="M284.95,322.34s.77-4.96-1.79-7.38-7.46-1.4-7.46-1.4c0,0-.77,4.96,1.79,7.38s7.46,1.4,7.46,1.4Z"/><path class="cls-3" d="M266.81,321.51s.77-4.96-1.79-7.38-7.46-1.4-7.46-1.4c0,0-.77,4.96,1.79,7.38s7.46,1.4,7.46,1.4Z"/><path class="cls-3" d="M342.2,251.4s-.77,4.96,1.79,7.38,7.46,1.4,7.46,1.4c0,0,.77-4.96-1.79-7.38-2.55-2.42-7.46-1.4-7.46-1.4Z"/><path class="cls-3" d="M342.2,276.67s-.77-4.96,1.79-7.38,7.46-1.4,7.46-1.4c0,0,.77,4.96-1.79,7.38-2.55,2.42-7.46,1.4-7.46,1.4Z"/><path class="cls-3" d="M354.03,264.44c0,3.27-.45,6.35-1.25,9.02,6.06-3.08,10.32-9.22,10.32-9.22,0,0-4.32-6.24-10.46-9.29,.88,2.77,1.39,6.02,1.39,9.49Z"/><path class="cls-4" d="M329.29,264.25s2.09,3.01,5.42,5.87c3.03,2.59,7.05,5.05,11.49,5.05,2.33,0,4.56-.68,6.59-1.71,.79-2.67,1.25-5.75,1.25-9.02,0-3.47-.5-6.72-1.39-9.49-1.99-.99-4.16-1.64-6.45-1.64-4.39,0-8.39,2.42-11.4,4.98-3.38,2.89-5.51,5.95-5.51,5.95Z"/><path class="cls-3" d="M321.58,255.52s-.77,4.96,1.79,7.38,7.46,1.4,7.46,1.4c0,0,.77-4.96-1.79-7.38s-7.46-1.4-7.46-1.4Z"/><path class="cls-3" d="M321.58,272.54s-.77-4.96,1.79-7.38c2.55-2.42,7.46-1.4,7.46-1.4,0,0,.77,4.96-1.79,7.38s-7.46,1.4-7.46,1.4Z"/><path class="cls-3" d="M339.72,271.72s-.77-4.96,1.79-7.38,7.46-1.4,7.46-1.4c0,0,.77,4.96-1.79,7.38-2.55,2.42-7.46,1.4-7.46,1.4Z"/><path class="cls-3" d="M233.12,221.67s.77,4.96-1.79,7.38-7.46,1.4-7.46,1.4c0,0-.77-4.96,1.79-7.38,2.55-2.42,7.46-1.4,7.46-1.4Z"/><path class="cls-3" d="M233.12,246.94s.77-4.96-1.79-7.38-7.46-1.4-7.46-1.4c0,0-.77,4.96,1.79,7.38s7.46,1.4,7.46,1.4Z"/><path class="cls-3" d="M221.29,234.72c0,3.27,.45,6.35,1.25,9.02-6.06-3.08-10.32-9.22-10.32-9.22,0,0,4.32-6.24,10.46-9.29-.88,2.77-1.39,6.02-1.39,9.49Z"/><path class="cls-4" d="M246.03,234.52s-2.09,3.01-5.42,5.87c-3.03,2.59-7.05,5.05-11.49,5.05-2.33,0-4.56-.68-6.59-1.71-.79-2.67-1.25-5.75-1.25-9.02,0-3.47,.5-6.72,1.39-9.49,1.99-.99,4.16-1.64,6.45-1.64,4.39,0,8.39,2.42,11.4,4.98,3.38,2.89,5.51,5.95,5.51,5.95Z"/><path class="cls-3" d="M253.73,225.79s.77,4.96-1.79,7.38-7.46,1.4-7.46,1.4c0,0-.77-4.96,1.79-7.38,2.55-2.42,7.46-1.4,7.46-1.4Z"/><path class="cls-3" d="M253.73,242.81s.77-4.96-1.79-7.38-7.46-1.4-7.46-1.4c0,0-.77,4.96,1.79,7.38,2.55,2.42,7.46,1.4,7.46,1.4Z"/><path class="cls-3" d="M235.59,241.99s.77-4.96-1.79-7.38-7.46-1.4-7.46-1.4c0,0-.77,4.96,1.79,7.38s7.46,1.4,7.46,1.4Z"/><path class="cls-8" d="M359.49,165.4c-8.11,11.17-33.78,19.34-64.23,19.34-27.9,0-51.8-6.86-61.84-16.6-23.14,18.42-37.92,46.48-37.92,77.93,0,55.48,46,100.46,102.75,100.46s102.75-44.98,102.75-100.46c0-33.05-16.32-62.36-41.51-80.67Z"/><path class="cls-6" d="M264.99,231.55h0c-7.77,0-14.12-7.6-14.12-16.89v-39.87c0-9.29,6.35-16.89,14.12-16.89h0c7.77,0,14.12,7.6,14.12,16.89v39.87c0,9.29-6.35,16.89-14.12,16.89Z"/><path class="cls-6" d="M324.45,231.55h0c-7.77,0-14.12-7.6-14.12-16.89v-39.87c0-9.29,6.35-16.89,14.12-16.89h0c7.77,0,14.12,7.6,14.12,16.89v39.87c0,9.29-6.35,16.89-14.12,16.89Z"/><g><path class="cls-6" d="M377.77,143.41c-1.23,4.97-3.44,9.6-6.39,13.78-.2,.29-.42,.59-.63,.87,0,0,0,0,0,0-.22,.29-.44,.58-.66,.86-1.1,1.42-2.29,2.78-3.56,4.08-.75,.77-1.54,1.53-2.34,2.26-.54,.49-1.08,.96-1.64,1.43-.56,.46-1.13,.92-1.7,1.36-2.29,1.77-4.75,3.37-7.33,4.8-.64,.35-1.29,.7-1.95,1.03-.65,.33-1.32,.65-1.99,.96-1,.46-2.02,.9-3.05,1.31-1.72,.69-3.48,1.3-5.27,1.83-.71,.21-1.44,.42-2.16,.6-5.06,1.32-10.39,2.03-15.84,2.03h-55.16c-5.45,0-10.78-.71-15.84-2.03-.72-.19-1.45-.39-2.16-.6-1.79-.54-3.55-1.15-5.27-1.83-1.03-.41-2.05-.85-3.05-1.31-.67-.31-1.34-.63-1.99-.96-.66-.33-1.31-.68-1.95-1.03-1.29-.71-2.55-1.47-3.77-2.27s-2.42-1.65-3.57-2.53c-.58-.45-1.14-.9-1.7-1.36-.56-.46-1.11-.94-1.64-1.43-.81-.73-1.59-1.49-2.34-2.26-1.27-1.3-2.45-2.66-3.56-4.08-.44-.57-.87-1.15-1.29-1.74-2.95-4.18-5.16-8.81-6.39-13.78-.07-.28-.13-.56-.2-.85-.05-.22-.1-.44-.14-.66-.01-.05-.02-.11-.03-.17-.05-.23-.09-.46-.13-.69h0c-.06-.31-.1-.59-.15-.89-.05-.3-.09-.6-.12-.9-.02-.15-.04-.29-.06-.43-.01-.12-.03-.24-.04-.37-.02-.2-.04-.39-.06-.58-.03-.27-.05-.53-.06-.79-.01-.19-.02-.39-.03-.58-.02-.27-.02-.55-.04-.82,0-.21,0-.42,0-.64,0-.53,0-1.05,.02-1.57,0-.28,.02-.57,.04-.84,0,0,0,0,0-.01,.02-.34,.05-.68,.08-1.01,0-.01,0-.03,0-.05,.03-.35,.07-.7,.12-1.05,0,0,0-.02,0-.03,.04-.32,.08-.63,.14-.95,0-.09,.02-.17,.04-.25,.05-.3,.1-.6,.16-.9,.07-.35,.14-.7,.22-1.05,.08-.35,.16-.69,.25-1.04,.09-.37,.2-.74,.3-1.11,.1-.32,.19-.64,.3-.95,.11-.34,.23-.68,.34-1.02,0,0,.39-1.04,.41-1.07,.11-.27,8.25-23.28,9.31-25.75l4.35-10.17,4.59-10.73c2.52-5.91,11.15-5.91,15.29,0l7.53,10.73,6.47,9.22h66.39l6.47-9.22,7.53-10.73c4.14-5.91,12.77-5.91,15.29,0l4.59,10.73,4.35,10.17c1.06,2.48,9.72,26.83,9.72,26.83,.12,.33,.23,.67,.34,1.02,.1,.31,.2,.63,.3,.95,.11,.37,.21,.74,.3,1.11,.09,.35,.17,.7,.25,1.04,.08,.35,.15,.7,.22,1.05,.06,.3,.11,.6,.16,.9,.01,.08,.03,.17,.04,.25,.05,.31,.1,.63,.14,.95,0,.01,0,.02,0,.03,.05,.35,.08,.7,.12,1.05,0,.01,0,.03,0,.05,.03,.34,.06,.67,.08,1.01,0,0,0,0,0,.01,.02,.28,.03,.56,.04,.84,.02,.52,.03,1.05,.02,1.57,0,.21,0,.42,0,.64-.01,.27-.02,.55-.04,.82,0,.19-.02,.39-.03,.58-.01,.26-.04,.53-.06,.79-.01,.19-.03,.38-.06,.58-.01,.12-.03,.24-.04,.37-.02,.14-.03,.29-.06,.43-.04,.3-.08,.6-.12,.9-.05,.29-.09,.58-.15,.88h0c-.04,.24-.08,.47-.13,.7,0,.06-.02,.11-.03,.17-.04,.22-.09,.44-.14,.66-.06,.28-.13,.56-.2,.85Z"/><circle cx="240.49" cy="132.72" r="3.74"/><circle cx="351.93" cy="132.72" r="3.74"/><path d="M300.67,151.61c0,2.33-2.66,4.21-5.95,4.21s-5.95-1.89-5.95-4.21c0,0,0,0,0-.01,0-.59,.63-1.06,1.37-1.06h9.16c.74,0,1.37,.47,1.37,1.06,0,0,0,0,0,.01Z"/><path d="M305.2,159.98c-3.07-1.65-6.14-3.31-9.2-4.96-.5-.27-.98-.13-1.3,.19-.32-.31-.8-.46-1.3-.19-3.07,1.65-6.14,3.31-9.2,4.96-1.26,.68-.14,2.61,1.13,1.93,3.07-1.65,6.14-3.31,9.2-4.96,.07-.04,.12-.08,.17-.12,.05,.04,.11,.08,.17,.12,3.07,1.65,6.14,3.31,9.2,4.96,1.26,.68,2.39-1.24,1.13-1.93Z"/><path d="M225.94,154.69l-7.03-1.74c-.45-.11-.72-.56-.61-1.01s.56-.72,1.01-.61l7.03,1.74c.45,.11,.72,.56,.61,1.01s-.56,.72-1.01,.61Z"/><path d="M226.25,158.58h-7.25c-.46,0-.84-.37-.84-.84s.37-.84,.84-.84h7.25c.46,0,.84,.37,.84,.84s-.37,.84-.84,.84Z"/><path d="M226.35,162.49l-7.06,1.61c-.45,.1-.9-.18-1-.63s.18-.9,.63-1l7.06-1.61c.45-.1,.9,.18,1,.63s-.18,.9-.63,1Z"/><path d="M365.73,154.69l7.03-1.74c.45-.11,.72-.56,.61-1.01s-.56-.72-1.01-.61l-7.03,1.74c-.45,.11-.72,.56-.61,1.01s.56,.72,1.01,.61Z"/><path d="M365.42,158.58h7.25c.46,0,.84-.37,.84-.84s-.37-.84-.84-.84h-7.25c-.46,0-.84,.37-.84,.84s.37,.84,.84,.84Z"/><path d="M365.32,162.49l7.06,1.61c.45,.1,.9-.18,1-.63s-.18-.9-.63-1l-7.06-1.61c-.45-.1-.9,.18-1,.63s.18,.9,.63,1Z"/></g><path class="cls-2" d="M392.75,237.6c-9.87-3.47-23.01,4.76-24.66,6.42s6.57,54.84-13.17,74.49c31.25-39.3,47.69-77.44,37.83-80.91Z"/></svg>