<?xml version="1.0" encoding="UTF-8"?>
<svg id="Layer_1" data-name="Layer 1" xmlns="http://www.w3.org/2000/svg" viewBox="0 0 1038.37 1621.11">
  <defs>
    <style>
      .cls-1 {
        fill: #38210c;
      }

      .cls-2 {
        fill: #603813;
        stroke: #000;
        stroke-miterlimit: 10;
      }

      .cls-3 {
        opacity: .26;
      }

      .cls-3, .cls-4 {
        fill: #fff;
      }

      .cls-5 {
        fill: #601213;
      }

      .cls-5, .cls-4 {
        opacity: .23;
      }
    </style>
  </defs>
  <rect class="cls-2" x="518.19" y="-3.53" width="1146" height="1628.17"/>
  <g>
    <path class="cls-5" d="m677.24,1471.78l828.73,1.31,1.36-1296.47s-126.84,11.23-201.18-16.99c-74.38-28.23-109.94-48.91-203.89-50.83-93.69-1.91-143.67,14.12-251.14,53.85-72.9,26.33-154.99,24.26-172.94,24.37-.47,20.6-.95,1284.76-.95,1284.76Z"/>
    <path class="cls-4" d="m706.8,1438.59l755.08-2.55-4.3-1222.59s-103.15,16.16-161.77-9.46c-58.66-25.65-101.45-56.64-213.67-53.27-111.78,3.36-180.09,32.33-229.86,55.88-49.57,23.46-149.46,21.44-149.46,21.44l3.97,1210.56Z"/>
    <path class="cls-3" d="m1388.68,268.26l3.89,1100.5-592.43,1.15-9.11-1091.09s87.33-5.53,142.62-41.77c55.61-36.44,146.3-36.98,146.3-36.98,0,0,96.69-10.96,167.2,35.3,70.34,46.14,141.52,32.9,141.52,32.9Z"/>
  </g>
  <rect class="cls-2" x="-625.81" y="-3.53" width="1146" height="1628.17"/>
  <g>
    <path class="cls-5" d="m-466.76,1471.78l828.73,1.31,1.36-1296.47s-126.84,11.23-201.18-16.99c-74.38-28.23-109.94-48.91-203.89-50.83-93.69-1.91-143.67,14.12-251.14,53.85-72.9,26.33-154.99,24.26-172.94,24.37-.47,20.6-.95,1284.76-.95,1284.76Z"/>
    <path class="cls-4" d="m-437.2,1438.59l755.08-2.55-4.3-1222.59s-103.15,16.16-161.77-9.46c-58.66-25.65-101.45-56.64-213.67-53.27-111.78,3.36-180.09,32.33-229.86,55.88-49.57,23.46-149.46,21.44-149.46,21.44l3.97,1210.56Z"/>
    <path class="cls-3" d="m244.68,268.26l3.89,1100.5-592.43,1.15-9.11-1091.09s87.33-5.53,142.62-41.77c55.61-36.44,146.3-36.98,146.3-36.98,0,0,96.69-10.96,167.2,35.3,70.34,46.14,141.52,32.9,141.52,32.9Z"/>
  </g>
  <path class="cls-1" d="m435.44,1536.34h0c-10.86,0-19.75-11.28-19.75-25.07v-251.72c0-13.79,8.89-25.07,19.75-25.07h0c10.86,0,19.75,11.28,19.75,25.07v251.72c0,13.79-8.89,25.07-19.75,25.07Z"/>
  <path class="cls-1" d="m605.44,1536.34h0c-10.86,0-19.75-11.28-19.75-25.07v-251.72c0-13.79,8.89-25.07,19.75-25.07h0c10.86,0,19.75,11.28,19.75,25.07v251.72c0,13.79-8.89,25.07-19.75,25.07Z"/>
</svg>