<?xml version="1.0" encoding="UTF-8"?>
<svg id="Layer_1" data-name="Layer 1" xmlns="http://www.w3.org/2000/svg" viewBox="0 0 1366 768">
  <defs>
    <style>
      .cls-1 {
        fill: #38210c;
      }

      .cls-2, .cls-3 {
        fill: #603813;
      }

      .cls-3 {
        stroke: #000;
        stroke-miterlimit: 10;
      }

      .cls-4 {
        opacity: .26;
      }

      .cls-4, .cls-5 {
        fill: #fff;
      }

      .cls-6 {
        fill: #601213;
      }

      .cls-6, .cls-5 {
        opacity: .23;
      }
    </style>
  </defs>
  <rect class="cls-3" x="683" y=".97" width="544.1" height="773.03"/>
  <g>
    <path class="cls-6" d="m758.52,701.42l393.47.62.65-615.54s-60.22,5.33-95.52-8.06c-35.31-13.4-52.2-23.22-96.81-24.13s-68.21,6.7-119.24,25.56c-34.61,12.5-73.59,11.52-82.11,11.57-.23,9.78-.45,609.99-.45,609.99Z"/>
    <path class="cls-5" d="m772.55,685.66l358.5-1.21-2.04-580.47s-48.97,7.67-76.8-4.49c-27.85-12.18-48.16-26.89-101.45-25.29-53.07,1.59-85.5,15.35-109.14,26.53-23.53,11.14-70.96,10.18-70.96,10.18l1.89,574.75Z"/>
    <path class="cls-4" d="m1096.3,130.01l1.85,522.5-281.28.54-4.33-518.03s41.46-2.63,67.72-19.83c26.4-17.3,69.46-17.56,69.46-17.56,0,0,45.9-5.2,79.39,16.76,33.4,21.91,67.19,15.62,67.19,15.62Z"/>
  </g>
  <rect class="cls-2" x="1227.1" y=".97" width="544.1" height="773.03"/>
  <g>
    <path class="cls-6" d="m1302.62,701.42l393.47.62.65-615.54s-60.22,5.33-95.52-8.06c-35.31-13.4-52.2-23.22-96.81-24.13s-68.21,6.7-119.24,25.56c-34.61,12.5-73.59,11.52-82.11,11.57-.23,9.78-.45,609.99-.45,609.99Z"/>
    <path class="cls-5" d="m1316.65,685.66l358.5-1.21-2.04-580.47s-48.97,7.67-76.8-4.49c-27.85-12.18-48.16-26.89-101.45-25.29-53.07,1.59-85.5,15.35-109.14,26.53-23.53,11.14-70.96,10.18-70.96,10.18l1.89,574.75Z"/>
    <path class="cls-4" d="m1640.4,130.01l1.85,522.5-281.28.54-4.33-518.03s41.46-2.63,67.72-19.83c26.4-17.3,69.46-17.56,69.46-17.56,0,0,45.9-5.2,79.39,16.76,33.4,21.91,67.19,15.62,67.19,15.62Z"/>
  </g>
  <rect class="cls-3" x="139.96" y=".97" width="544.1" height="773.03"/>
  <g>
    <path class="cls-6" d="m215.48,701.42l393.47.62.65-615.54s-60.22,5.33-95.52-8.06c-35.31-13.4-52.2-23.22-96.81-24.13s-68.21,6.7-119.24,25.56c-34.61,12.5-73.59,11.52-82.11,11.57-.23,9.78-.45,609.99-.45,609.99Z"/>
    <path class="cls-5" d="m229.51,685.66l358.5-1.21-2.04-580.47s-48.97,7.67-76.8-4.49c-27.85-12.18-48.16-26.89-101.45-25.29-53.07,1.59-85.5,15.35-109.14,26.53-23.53,11.14-70.96,10.18-70.96,10.18l1.89,574.75Z"/>
    <path class="cls-4" d="m553.26,130.01l1.85,522.5-281.28.54-4.33-518.03s41.46-2.63,67.72-19.83c26.4-17.3,69.46-17.56,69.46-17.56,0,0,45.9-5.2,79.39,16.76,33.4,21.91,67.19,15.62,67.19,15.62Z"/>
  </g>
  <rect class="cls-2" x="-405.21" y=".97" width="544.1" height="773.03"/>
  <g>
    <path class="cls-6" d="m-329.69,701.42l393.47.62.65-615.54s-60.22,5.33-95.52-8.06c-35.31-13.4-52.2-23.22-96.81-24.13s-68.21,6.7-119.24,25.56c-34.61,12.5-73.59,11.52-82.11,11.57-.23,9.78-.45,609.99-.45,609.99Z"/>
    <path class="cls-5" d="m-315.66,685.66l358.5-1.21-2.04-580.47s-48.97,7.67-76.8-4.49c-27.85-12.18-48.16-26.89-101.45-25.29-53.07,1.59-85.5,15.35-109.14,26.53-23.53,11.14-70.96,10.18-70.96,10.18l1.89,574.75Z"/>
    <path class="cls-4" d="m8.09,130.01l1.85,522.5-281.28.54-4.33-518.03s41.46-2.63,67.72-19.83c26.4-17.3,69.46-17.56,69.46-17.56,0,0,45.9-5.2,79.39,16.76,33.4,21.91,67.19,15.62,67.19,15.62Z"/>
  </g>
  <path class="cls-1" d="m634.77,741.99h0c-6.23,0-11.32-6.47-11.32-14.37v-144.3c0-7.91,5.09-14.37,11.32-14.37h0c6.23,0,11.32,6.47,11.32,14.37v144.3c0,7.91-5.09,14.37-11.32,14.37Z"/>
  <path class="cls-1" d="m732.22,741.99h0c-6.23,0-11.32-6.47-11.32-14.37v-144.3c0-7.91,5.09-14.37,11.32-14.37h0c6.23,0,11.32,6.47,11.32,14.37v144.3c0,7.91-5.09,14.37-11.32,14.37Z"/>
</svg>