<?xml version="1.0" encoding="UTF-8"?><svg id="Layer_1" xmlns="http://www.w3.org/2000/svg" viewBox="0 0 1366 768"><defs><style>.cls-1{fill:#f635ff;}</style></defs><polygon class="cls-1" points="537 569.56 546.83 589.47 568.8 592.67 552.9 608.17 556.65 630.05 537 619.72 517.35 630.05 521.1 608.17 505.2 592.67 527.17 589.47 537 569.56"/><polygon class="cls-1" points="659.5 378.24 668.98 397.45 690.18 400.53 674.84 415.48 678.46 436.6 659.5 426.63 640.54 436.6 644.16 415.48 628.82 400.53 650.02 397.45 659.5 378.24"/><polygon class="cls-1" points="481.5 476.24 490.98 495.45 512.18 498.53 496.84 513.48 500.46 534.6 481.5 524.63 462.54 534.6 466.16 513.48 450.82 498.53 472.02 495.45 481.5 476.24"/><polygon class="cls-1" points="485.5 376.24 494.98 395.45 516.18 398.53 500.84 413.48 504.46 434.6 485.5 424.63 466.54 434.6 470.16 413.48 454.82 398.53 476.02 395.45 485.5 376.24"/><polygon class="cls-1" points="524.5 264.24 533.98 283.45 555.18 286.53 539.84 301.48 543.46 322.6 524.5 312.63 505.54 322.6 509.16 301.48 493.82 286.53 515.02 283.45 524.5 264.24"/><polygon class="cls-1" points="622.5 89.24 631.98 108.45 653.18 111.53 637.84 126.48 641.46 147.6 622.5 137.63 603.54 147.6 607.16 126.48 591.82 111.53 613.02 108.45 622.5 89.24"/><polygon class="cls-1" points="710.5 246.97 720.36 266.93 742.39 270.14 726.45 285.68 730.21 307.63 710.5 297.27 690.79 307.63 694.55 285.68 678.61 270.14 700.64 266.93 710.5 246.97"/><polygon class="cls-1" points="833 237.78 845.41 262.92 873.16 266.95 853.08 286.52 857.82 314.16 833 301.11 808.18 314.16 812.92 286.52 792.84 266.95 820.59 262.92 833 237.78"/><polygon class="cls-1" points="908 321.67 916.91 339.73 936.84 342.63 922.42 356.69 925.82 376.53 908 367.16 890.18 376.53 893.58 356.69 879.16 342.63 899.09 339.73 908 321.67"/><polygon class="cls-1" points="910.5 413.7 920.14 433.23 941.69 436.36 926.1 451.57 929.78 473.03 910.5 462.9 891.22 473.03 894.9 451.57 879.31 436.36 900.86 433.23 910.5 413.7"/><polygon class="cls-1" points="866.5 494.78 875.82 513.67 896.67 516.7 881.59 531.4 885.15 552.17 866.5 542.36 847.85 552.17 851.41 531.4 836.33 516.7 857.18 513.67 866.5 494.78"/><polygon class="cls-1" points="744.5 549.42 753.63 567.93 774.06 570.9 759.28 585.3 762.77 605.64 744.5 596.04 726.23 605.64 729.72 585.3 714.94 570.9 735.37 567.93 744.5 549.42"/><polygon class="cls-1" points="568 171.56 577.83 191.47 599.8 194.67 583.9 210.17 587.65 232.05 568 221.72 548.35 232.05 552.1 210.17 536.2 194.67 558.17 191.47 568 171.56"/><polygon class="cls-1" points="636.5 583.42 645.63 601.93 666.06 604.9 651.28 619.3 654.77 639.64 636.5 630.04 618.23 639.64 621.72 619.3 606.94 604.9 627.37 601.93 636.5 583.42"/></svg>